<svg width="285" height="255" viewBox="0 0 285 255" fill="none" xmlns="http://www.w3.org/2000/svg">
<path d="M169.197 170C169.197 216.391 131.546 254 85.0986 254C38.6511 254 1 216.391 1 170C1 123.609 38.6511 86 85.0986 86C131.546 86 169.197 123.609 169.197 170Z" stroke="#7A2F6A" stroke-opacity="0.25" stroke-width="2"/>
<path d="M284 170C284 216.391 246.349 254 199.901 254C153.454 254 115.803 216.391 115.803 170C115.803 123.609 153.454 86 199.901 86C246.349 86 284 123.609 284 170Z" stroke="#7A2F6A" stroke-opacity="0.25" stroke-width="2"/>
<path d="M226.197 85C226.197 131.391 188.546 169 142.099 169C95.6511 169 58 131.391 58 85C58 38.6092 95.6511 1 142.099 1C188.546 1 226.197 38.6092 226.197 85Z" stroke="#7A2F6A" stroke-opacity="0.25" stroke-width="2"/>
</svg>
