<svg width="71" height="71" viewBox="0 0 71 71" fill="none" xmlns="http://www.w3.org/2000/svg">
<path d="M28.326 48.0729L48.0729 35.5L28.326 22.9271V48.0729ZM35.5 65.0833C31.4569 65.0833 27.6358 64.3068 24.0364 62.7537C20.4371 61.2005 17.2939 59.0804 14.6068 56.3932C11.9196 53.7061 9.79947 50.5629 8.24634 46.9636C6.69322 43.3642 5.91666 39.5431 5.91666 35.5C5.91666 31.4076 6.69322 27.5618 8.24634 23.9625C9.79947 20.3632 11.9196 17.2323 14.6068 14.5698C17.2939 11.9073 20.4371 9.79948 24.0364 8.24636C27.6358 6.69323 31.4569 5.91667 35.5 5.91667C39.5924 5.91667 43.4382 6.69323 47.0375 8.24636C50.6368 9.79948 53.7677 11.9073 56.4302 14.5698C59.0927 17.2323 61.2005 20.3632 62.7536 23.9625C64.3068 27.5618 65.0833 31.4076 65.0833 35.5C65.0833 39.5431 64.3068 43.3642 62.7536 46.9636C61.2005 50.5629 59.0927 53.7061 56.4302 56.3932C53.7677 59.0804 50.6368 61.2005 47.0375 62.7537C43.4382 64.3068 39.5924 65.0833 35.5 65.0833ZM35.5 60.6458C42.5014 60.6458 48.4427 58.1929 53.3239 53.287C58.2052 48.3811 60.6458 42.4521 60.6458 35.5C60.6458 28.4986 58.2052 22.5573 53.3239 17.676C48.4427 12.7948 42.5014 10.3542 35.5 10.3542C28.5479 10.3542 22.6189 12.7948 17.713 17.676C12.8071 22.5573 10.3542 28.4986 10.3542 35.5C10.3542 42.4521 12.8071 48.3811 17.713 53.287C22.6189 58.1929 28.5479 60.6458 35.5 60.6458Z" fill="white"/>
</svg>
